<svg width="35" height="36" viewBox="0 0 35 36" fill="none" xmlns="http://www.w3.org/2000/svg">
<path d="M34.1081 18.0019C34.1081 8.55441 26.4961 0.895682 17.1062 0.895683C7.71628 0.895683 0.104247 8.55441 0.104247 18.0019C0.104248 27.4495 7.71628 35.1082 17.1062 35.1082C26.4961 35.1082 34.1081 27.4495 34.1081 18.0019Z" fill="black"/>
<path d="M34.1081 18.0019C34.1081 8.55441 26.4961 0.895682 17.1062 0.895683C7.71628 0.895683 0.104247 8.55441 0.104247 18.0019C0.104248 27.4495 7.71628 35.1082 17.1062 35.1082C26.4961 35.1082 34.1081 27.4495 34.1081 18.0019Z" fill="#313131"/>
<path d="M29.8614 6.69136L10.3054 21.9665L10.3054 24.8445L23.9013 24.8445L23.9013 22.5421L13.2115 22.5421L31.2452 8.49873C30.8237 7.86504 30.3611 7.26138 29.8614 6.69136Z" fill="url(#paint0_linear_78_88)"/>
<defs>
<linearGradient id="paint0_linear_78_88" x1="22.1123" y1="14.3907" x2="30.4644" y2="7.69316" gradientUnits="userSpaceOnUse">
<stop stop-color="white"/>
<stop offset="1" stop-color="white" stop-opacity="0"/>
</linearGradient>
</defs>
</svg>
