<svg width="45" height="45" viewBox="0 0 45 45" fill="none" xmlns="http://www.w3.org/2000/svg">
<path d="M10.143 3.84302H34.857C38.601 3.84302 41.634 6.87602 41.634 10.62V34.38C41.634 38.124 38.601 41.157 34.857 41.157H10.143C6.39897 41.157 3.36597 38.124 3.36597 34.38V10.62C3.36597 6.87602 6.39897 3.84302 10.143 3.84302Z" fill="white"/>
<path d="M11.979 30.006V13.599C11.979 13.491 12.024 13.428 12.141 13.428C12.411 13.428 12.663 13.428 13.032 13.41C13.419 13.392 13.815 13.392 14.247 13.374C14.679 13.356 15.138 13.356 15.633 13.338C16.128 13.32 16.605 13.32 17.082 13.32C18.387 13.32 19.476 13.482 20.367 13.815C21.168 14.085 21.897 14.535 22.5 15.12C23.013 15.633 23.409 16.254 23.661 16.938C23.904 17.604 24.03 18.297 24.03 19.008C24.03 20.376 23.715 21.51 23.076 22.401C22.437 23.292 21.546 23.967 20.511 24.345C19.431 24.741 18.234 24.885 16.92 24.885C16.533 24.885 16.281 24.885 16.119 24.867C15.957 24.849 15.732 24.849 15.435 24.849V29.97C15.453 30.078 15.372 30.177 15.264 30.195C15.246 30.195 15.228 30.195 15.201 30.195H12.168C12.042 30.213 11.979 30.15 11.979 30.006ZM15.453 16.506V21.861C15.678 21.879 15.885 21.897 16.074 21.897H16.92C17.541 21.897 18.162 21.798 18.756 21.609C19.269 21.465 19.71 21.159 20.061 20.763C20.394 20.367 20.556 19.818 20.556 19.125C20.574 18.63 20.448 18.135 20.187 17.703C19.917 17.289 19.53 16.974 19.071 16.794C18.477 16.551 17.847 16.461 17.19 16.479C16.776 16.479 16.407 16.479 16.11 16.497C15.786 16.47 15.561 16.488 15.453 16.506Z" fill="black"/>
<path d="M33.9841 20.889C33.5071 20.637 32.9941 20.457 32.4541 20.349C31.8601 20.223 31.2751 20.142 30.6721 20.142C30.3571 20.124 30.0151 20.178 29.7181 20.25C29.5111 20.295 29.3311 20.412 29.2231 20.565C29.1421 20.691 29.0971 20.853 29.0971 20.997C29.0971 21.141 29.1601 21.285 29.2591 21.411C29.4031 21.582 29.5921 21.726 29.7991 21.843C30.1681 22.032 30.5461 22.212 30.9331 22.365C31.7971 22.653 32.6251 23.049 33.3901 23.526C33.9121 23.859 34.3441 24.309 34.6501 24.849C34.9021 25.362 35.0371 25.92 35.0191 26.487C35.0371 27.234 34.8121 27.99 34.3981 28.611C33.9481 29.25 33.3271 29.745 32.6161 30.033C31.8331 30.366 30.8791 30.546 29.7271 30.546C28.9981 30.546 28.2781 30.483 27.5581 30.339C27.0001 30.24 26.4421 30.069 25.9291 29.826C25.8211 29.763 25.7401 29.655 25.7581 29.52V26.748C25.7581 26.703 25.7761 26.64 25.8211 26.604C25.8661 26.568 25.9201 26.586 25.9651 26.622C26.5861 26.991 27.2431 27.243 27.9451 27.405C28.5481 27.567 29.1871 27.648 29.8261 27.648C30.4291 27.648 30.8611 27.567 31.1491 27.423C31.4011 27.315 31.5811 27.036 31.5811 26.757C31.5811 26.532 31.4551 26.325 31.1941 26.118C30.9421 25.911 30.4111 25.668 29.6281 25.371C28.8181 25.083 28.0621 24.705 27.3601 24.219C26.8651 23.868 26.4511 23.409 26.1451 22.86C25.8931 22.347 25.7581 21.789 25.7761 21.231C25.7761 20.547 25.9651 19.89 26.3161 19.305C26.7121 18.666 27.3061 18.153 27.9901 17.838C28.7371 17.451 29.6821 17.28 30.8161 17.28C31.4731 17.28 32.1391 17.325 32.7961 17.424C33.2731 17.487 33.7411 17.613 34.1641 17.793C34.2271 17.811 34.2901 17.874 34.3261 17.937C34.3441 18 34.3621 18.063 34.3621 18.126V20.727C34.3621 20.79 34.3261 20.853 34.2811 20.889C34.1281 20.925 34.0471 20.925 33.9841 20.889Z" fill="black"/>
</svg>
