<svg width="142" height="71" viewBox="0 0 142 71" fill="none" xmlns="http://www.w3.org/2000/svg">
<path d="M105.858 43.6803L105.849 38.0955L105.821 28.1189M111.471 32.4181L105.849 38.0951L111.498 43.6982M73.8382 38.1698C73.8653 36.9724 73.517 35.7487 72.8119 34.758C71.7958 33.3311 70.1504 32.3543 68.3459 32.3355C68.2257 32.3355 68.1064 32.3355 67.9854 32.3447C67.2719 32.3888 66.581 32.4878 65.9696 32.7424C61.9489 34.4153 61.2366 39.9988 64.6288 42.5252C67.5667 44.7104 71.8401 43.8197 73.3201 40.4821C73.6326 39.7768 73.838 38.8876 73.838 38.1703V28.0734M100.967 33.0016C100.136 32.4636 99.163 32.2695 98.2022 32.2711C98.098 32.2711 97.9909 32.2763 97.8972 32.2802C95.1192 32.3998 92.5436 34.3627 92.5436 38.17C92.5436 42.6714 97.3701 45.1008 100.978 42.978M117.178 42.4879L125.712 35.1742C125.712 35.1742 125.504 34.7816 125.37 34.6011C124.221 33.0592 122.464 32.2892 120.617 32.2892C116.05 32.2892 112.623 38.1971 117.178 42.4879ZM117.178 42.4879C117.493 42.785 117.926 43.0178 118.407 43.2184C120.078 43.915 122.366 43.8579 123.604 42.9408M135.781 32.4183C134.378 32.4221 133.011 32.9135 131.999 33.8605C130.402 35.1782 130.055 36.8426 130.076 38.946L130.122 43.7264M83.1788 32.3073C83.0492 32.3095 82.9205 32.3235 82.7905 32.3259C79.326 32.3915 76.8281 35.9882 77.5849 39.3253C78.3223 42.5775 81.8751 44.5032 84.9448 43.4399C88.5197 42.5003 89.9772 37.9989 88.0145 34.9612C86.9409 33.3005 85.1214 32.2704 83.1788 32.3073Z" stroke="white" stroke-width="1.93892" stroke-linecap="round" stroke-linejoin="round"/>
<path d="M35.8613 28.9289H40.8579V34.0366H43.3843C44.5512 34.0366 45.7508 33.8291 46.8558 33.4545C47.3986 33.2705 48.008 33.0142 48.5436 32.6897C47.8383 31.7689 47.4782 30.606 47.3724 29.4601C47.2282 27.9012 47.5428 25.8721 48.5961 24.6519L49.1214 24.0445L49.7472 24.5475C51.3205 25.8136 52.6482 27.5848 52.8818 29.5991C54.7791 29.041 57.0069 29.173 58.6789 30.1381L59.3651 30.5341L59.0038 31.239C57.5914 34.0017 54.6342 34.8567 51.7433 34.7053C47.4176 45.4802 37.9995 50.5809 26.5802 50.5809C20.6804 50.5809 15.2678 48.3755 12.1854 43.1412C12.0047 42.8161 11.85 42.4761 11.6859 42.1422C10.644 39.8382 10.2979 37.3141 10.5326 34.792L10.603 34.0366H14.8758V28.9289H19.8723V23.9324H29.8653V18.9359H35.8613V28.9289Z" fill="white"/>
<mask id="mask0_83_293" style="mask-type:luminance" maskUnits="userSpaceOnUse" x="11" y="19" width="48" height="31">
<path d="M20.2402 19.3729V29.4245H15.4329V34.4503H11.4079L11.3629 34.8873C11.1116 37.6253 11.5893 40.1508 12.6877 42.3102L13.0566 42.9723C13.2751 43.3693 13.5373 43.7421 13.8078 44.1059C14.0784 44.4698 14.1763 44.6704 14.3476 44.9118C17.251 48.1729 21.5797 49.7462 26.5771 49.7462C37.6444 49.7462 47.0372 44.8432 51.1939 33.8288C54.1432 34.1312 56.9723 33.3752 58.2615 30.8586C56.2075 29.6734 53.5683 30.0533 52.0477 30.8177L56.0764 19.3729L40.3434 29.4245H35.3176V19.3729H20.2402Z" fill="white"/>
</mask>
<g mask="url(#mask0_83_293)">
<path d="M30.6982 19.7684H35.0287V24.0989H30.6982V19.7684Z" fill="#595959"/>
<path d="M31.2297 23.7381V20.1289ZM31.8792 23.7379V20.1289ZM32.5351 23.7379V20.1289ZM33.1913 23.7379V20.1289ZM33.8475 23.7379V20.1289ZM34.4965 23.7379V20.1289Z" fill="black"/>
<path d="M31.2297 23.7381V20.1289M31.8792 23.7379V20.1289M32.5351 23.7379V20.1289M33.1913 23.7379V20.1289M33.8475 23.7379V20.1289M34.4965 23.7379V20.1289" stroke="white" stroke-width="0.288068"/>
<path d="M35.6948 24.1012H40.0253V19.7709H35.6948V24.1012Z" fill="black"/>
<path d="M36.2263 20.1293V23.7385ZM36.8757 20.1295V23.7385ZM37.5317 20.1295V23.7385ZM38.1879 20.1295V23.7385ZM38.8441 20.1295V23.7385ZM39.4931 20.1295V23.7385Z" fill="black"/>
<path d="M36.2263 20.1293V23.7385M36.8757 20.1295V23.7385M37.5317 20.1295V23.7385M38.1879 20.1295V23.7385M38.8441 20.1295V23.7385M39.4931 20.1295V23.7385" stroke="white" stroke-width="0.288068"/>
<path d="M10.7122 24.7627H15.0427V29.093H10.7122V24.7627Z" fill="black"/>
<path d="M10.7122 29.7614H15.0427V34.0919H10.7122V29.7614Z" fill="#595959"/>
<path d="M11.2437 28.7346V25.1254ZM11.8931 28.7344V25.1254ZM12.5491 28.7344V25.1254ZM13.2052 28.7344V25.1254ZM13.8614 28.7344V25.1254ZM14.5104 28.7344V25.1254Z" fill="black"/>
<path d="M11.2437 28.7346V25.1254M11.8931 28.7344V25.1254M12.5491 28.7344V25.1254M13.2052 28.7344V25.1254M13.8614 28.7344V25.1254M14.5104 28.7344V25.1254" stroke="white" stroke-width="0.288068"/>
<path d="M11.2437 33.7311V30.1219ZM11.8931 33.7309V30.1219ZM12.5491 33.7309V30.1219ZM13.2052 33.7309V30.1219ZM13.8614 33.7309V30.1219ZM14.5104 33.7309V30.1219Z" fill="black"/>
<path d="M11.2437 33.7311V30.1219M11.8931 33.7309V30.1219M12.5491 33.7309V30.1219M13.2052 33.7309V30.1219M13.8614 33.7309V30.1219M14.5104 33.7309V30.1219" stroke="white" stroke-width="0.288068"/>
<path d="M15.7087 34.0942H20.0392V29.764H15.7087V34.0942Z" fill="black"/>
<path d="M15.7087 29.0955H20.0392V24.765H15.7087V29.0955Z" fill="#595959"/>
<path d="M16.2402 30.1223V33.7315ZM16.8897 30.1225V33.7315ZM17.5456 30.1225V33.7315ZM18.2018 30.1225V33.7315ZM18.858 30.1225V33.7315ZM19.507 30.1225V33.7315Z" fill="black"/>
<path d="M16.2402 30.1223V33.7315M16.8897 30.1225V33.7315M17.5456 30.1225V33.7315M18.2018 30.1225V33.7315M18.858 30.1225V33.7315M19.507 30.1225V33.7315" stroke="white" stroke-width="0.288068"/>
<path d="M16.2402 25.1258V28.735ZM16.8897 25.126V28.735ZM17.5456 25.126V28.735ZM18.2018 25.126V28.735ZM18.858 25.126V28.735ZM19.507 25.126V28.735Z" fill="black"/>
<path d="M16.2402 25.1258V28.735M16.8897 25.126V28.735M17.5456 25.126V28.735M18.2018 25.126V28.735M18.858 25.126V28.735M19.507 25.126V28.735" stroke="white" stroke-width="0.288068"/>
<path d="M20.7053 24.7627H25.0358V29.093H20.7053V24.7627Z" fill="black"/>
<path d="M20.7053 29.7614H25.0358V34.0919H20.7053V29.7614Z" fill="#595959"/>
<path d="M21.2368 28.7346V25.1254ZM21.8862 28.7344V25.1254ZM22.5422 28.7344V25.1254ZM23.1984 28.7344V25.1254ZM23.8546 28.7344V25.1254ZM24.5036 28.7344V25.1254Z" fill="black"/>
<path d="M21.2368 28.7346V25.1254M21.8862 28.7344V25.1254M22.5422 28.7344V25.1254M23.1984 28.7344V25.1254M23.8546 28.7344V25.1254M24.5036 28.7344V25.1254" stroke="white" stroke-width="0.288068"/>
<path d="M21.2368 33.7311V30.1219ZM21.8862 33.7309V30.1219ZM22.5422 33.7309V30.1219ZM23.1984 33.7309V30.1219ZM23.8546 33.7309V30.1219ZM24.5036 33.7309V30.1219Z" fill="black"/>
<path d="M21.2368 33.7311V30.1219M21.8862 33.7309V30.1219M22.5422 33.7309V30.1219M23.1984 33.7309V30.1219M23.8546 33.7309V30.1219M24.5036 33.7309V30.1219" stroke="white" stroke-width="0.288068"/>
<path d="M25.7019 34.0942H30.0324V29.764H25.7019V34.0942Z" fill="black"/>
<path d="M25.7019 29.0955H30.0324V24.765H25.7019V29.0955Z" fill="#595959"/>
<path d="M26.2334 30.1223V33.7315ZM26.8828 30.1225V33.7315ZM27.5388 30.1225V33.7315ZM28.195 30.1225V33.7315ZM28.8512 30.1225V33.7315ZM29.5002 30.1225V33.7315Z" fill="black"/>
<path d="M26.2334 30.1223V33.7315M26.8828 30.1225V33.7315M27.5388 30.1225V33.7315M28.195 30.1225V33.7315M28.8512 30.1225V33.7315M29.5002 30.1225V33.7315" stroke="white" stroke-width="0.288068"/>
<path d="M26.2334 25.1258V28.735ZM26.8828 25.126V28.735ZM27.5388 25.126V28.735ZM28.195 25.126V28.735ZM28.8512 25.126V28.735ZM29.5002 25.126V28.735Z" fill="black"/>
<path d="M26.2334 25.1258V28.735M26.8828 25.126V28.735M27.5388 25.126V28.735M28.195 25.126V28.735M28.8512 25.126V28.735M29.5002 25.126V28.735" stroke="white" stroke-width="0.288068"/>
<path d="M30.6982 24.7627H35.0287V29.093H30.6982V24.7627Z" fill="black"/>
<path d="M30.6982 29.7614H35.0287V34.0919H30.6982V29.7614Z" fill="#595959"/>
<path d="M31.2297 28.7346V25.1254ZM31.8792 28.7344V25.1254ZM32.5351 28.7344V25.1254ZM33.1913 28.7344V25.1254ZM33.8475 28.7344V25.1254ZM34.4965 28.7344V25.1254Z" fill="black"/>
<path d="M31.2297 28.7346V25.1254M31.8792 28.7344V25.1254M32.5351 28.7344V25.1254M33.1913 28.7344V25.1254M33.8475 28.7344V25.1254M34.4965 28.7344V25.1254" stroke="white" stroke-width="0.288068"/>
<path d="M31.2297 33.7311V30.1219ZM31.8792 33.7309V30.1219ZM32.5351 33.7309V30.1219ZM33.1913 33.7309V30.1219ZM33.8475 33.7309V30.1219ZM34.4965 33.7309V30.1219Z" fill="black"/>
<path d="M31.2297 33.7311V30.1219M31.8792 33.7309V30.1219M32.5351 33.7309V30.1219M33.1913 33.7309V30.1219M33.8475 33.7309V30.1219M34.4965 33.7309V30.1219" stroke="white" stroke-width="0.288068"/>
<path d="M35.6948 34.0942H40.0253V29.764H35.6948V34.0942Z" fill="black"/>
<path d="M35.6948 29.0955H40.0253V24.765H35.6948V29.0955Z" fill="#595959"/>
<path d="M36.2263 30.1223V33.7315ZM36.8757 30.1225V33.7315ZM37.5317 30.1225V33.7315ZM38.1879 30.1225V33.7315ZM38.8441 30.1225V33.7315ZM39.4931 30.1225V33.7315Z" fill="black"/>
<path d="M36.2263 30.1223V33.7315M36.8757 30.1225V33.7315M37.5317 30.1225V33.7315M38.1879 30.1225V33.7315M38.8441 30.1225V33.7315M39.4931 30.1225V33.7315" stroke="white" stroke-width="0.288068"/>
<path d="M36.2263 25.1258V28.735ZM36.8757 25.126V28.735ZM37.5317 25.126V28.735ZM38.1879 25.126V28.735ZM38.8441 25.126V28.735ZM39.4931 25.126V28.735Z" fill="black"/>
<path d="M36.2263 25.1258V28.735M36.8757 25.126V28.735M37.5317 25.126V28.735M38.1879 25.126V28.735M38.8441 25.126V28.735M39.4931 25.126V28.735" stroke="white" stroke-width="0.288068"/>
<path d="M52.0491 30.8186C52.3841 28.215 50.4356 26.1697 49.2272 25.1989C47.8346 26.8089 47.6183 31.0283 49.803 32.8046C48.5837 33.8876 46.0146 34.8692 43.384 34.8692H11.0626C10.8069 37.6152 11.0626 50.8388 11.0626 50.8388H58.4799L58.2643 30.8614C56.2102 29.6762 53.5697 30.0544 52.0491 30.8186Z" fill="#3D3D3D"/>
<path d="M11.0627 38.3835V50.8387H58.4801V38.3835" fill="black" fill-opacity="0.17"/>
<path d="M27.94 49.7243C24.9813 48.3204 23.3573 46.4117 22.4538 44.3284L13.4663 44.7204L18.0551 50.8387L27.94 49.7243Z" fill="#B5B5B5"/>
<path d="M52.2525 30.722V30.7285C47.6943 36.6065 41.1557 41.7372 34.1364 44.4337C27.8749 46.839 22.4158 46.8504 18.6493 44.9188C18.2437 44.6897 17.846 44.4354 17.4475 44.195C14.6861 42.2651 13.131 39.0731 13.2616 34.8674H11.0627V50.8387H58.4801V29.8615H53.0173L52.2525 30.722Z" fill="black" fill-opacity="0.085"/>
</g>
<path d="M13.603 44.5084C16.6983 44.6778 20.0015 44.7081 22.8833 43.8048" stroke="white" stroke-width="0.627841" stroke-linecap="round"/>
<path d="M25.9588 42.308C25.9586 42.6248 25.8327 42.9285 25.6087 43.1525C25.3847 43.3765 25.0809 43.5024 24.7642 43.5026C24.4474 43.5025 24.1435 43.3766 23.9195 43.1526C23.6955 42.9286 23.5695 42.6248 23.5693 42.308C23.5695 41.9911 23.6954 41.6873 23.9194 41.4632C24.1435 41.2392 24.4473 41.1133 24.7642 41.1132C25.081 41.1133 25.3848 41.2393 25.6088 41.4633C25.8328 41.6874 25.9587 41.9912 25.9588 42.308Z" fill="#B5B5B5"/>
<path d="M25.0738 41.51C25.0077 41.5487 24.9561 41.608 24.927 41.6788C24.8979 41.7497 24.8928 41.8281 24.9126 41.9022C24.9324 41.9762 24.976 42.0416 25.0366 42.0884C25.0973 42.1353 25.1716 42.1609 25.2482 42.1614C25.3804 42.1614 25.4951 42.0879 25.5545 41.9796C25.5965 42.0805 25.6197 42.1915 25.6197 42.3078C25.6197 42.7802 25.2366 43.1632 24.764 43.1632C24.2913 43.1632 23.9083 42.7802 23.9083 42.3078C23.9084 42.0808 23.9986 41.8633 24.1591 41.7028C24.3195 41.5423 24.5371 41.4521 24.764 41.4518C24.8699 41.4518 24.975 41.4714 25.0738 41.5097V41.51ZM3.6333 38.6374H59.2071C57.997 38.3304 55.3787 37.9159 55.8103 36.3299C53.6099 38.876 48.3037 38.116 46.9649 36.8609C45.4735 39.0237 36.792 38.2017 36.1865 36.5167C34.3169 38.7106 28.5239 38.7106 26.6543 36.5167C26.0486 38.1993 17.3675 39.0237 15.8757 36.8609C14.5367 38.1165 9.23292 38.8762 7.03031 36.3299C7.46209 37.9159 4.84386 38.3306 3.6333 38.6374Z" fill="white"/>
</svg>
