<svg width="120" height="60" viewBox="0 0 120 60" fill="none" xmlns="http://www.w3.org/2000/svg">
<path d="M40.0001 41.753V18.708H41.2501V22.333C41.3977 22.1723 41.534 22.0015 41.6581 21.822C42.7021 19.656 44.9041 18.289 47.3081 18.316C50.1581 18.231 52.4741 19.286 53.8351 21.822C54.7011 23.3975 55.1777 25.1573 55.225 26.9545C55.2723 28.7517 54.889 30.5342 54.1071 32.153C52.8391 34.995 49.7071 36.408 46.3541 35.889C45.3106 35.8003 44.3059 35.4517 43.4318 34.8749C42.5577 34.2981 41.842 33.5115 41.3501 32.587V41.752L40.0001 41.753ZM41.2501 26.86L41.5301 29.566C42.0241 32.646 43.8451 34.466 46.7041 34.808C48.0467 35.0288 49.4243 34.7771 50.6021 34.0958C51.7799 33.4145 52.685 32.3459 53.1631 31.072C54.2751 28.422 54.1931 25.422 52.9431 22.834C52.4328 21.6921 51.5647 20.7473 50.47 20.1424C49.3753 19.5375 48.1134 19.3053 46.8751 19.481C45.7127 19.5656 44.6055 20.0101 43.7073 20.7527C42.8091 21.4953 42.1645 22.4993 41.8631 23.625C41.5968 24.6904 41.3922 25.7702 41.2501 26.859V26.86ZM80.7481 29.992C80.5585 31.6146 79.7861 33.1131 78.5744 34.2088C77.3628 35.3046 75.7945 35.923 74.1611 35.949C68.9191 36.213 66.4591 32.732 66.0681 28.715C65.7962 26.5336 66.1503 24.3198 67.0891 22.332C67.7424 20.9684 68.813 19.8482 70.1456 19.1337C71.4782 18.4192 73.0037 18.1476 74.5011 18.358C75.9245 18.479 77.2739 19.0446 78.3582 19.9748C79.4425 20.9049 80.2069 22.1525 80.5431 23.541C80.8093 24.8059 81.0053 26.0845 81.1301 27.371H67.3631C67.1081 31.013 69.0651 33.941 71.8391 34.647C75.2941 35.497 78.2471 34 79.3191 30.715C79.5571 29.872 79.9911 29.753 80.7571 29.992H80.7481ZM67.3531 26.205H79.6671C79.59 22.325 77.1741 19.505 73.8971 19.473C70.1971 19.413 67.514 22.12 67.3531 26.205ZM83.2931 30.077H84.5001C84.5444 30.9663 84.8332 31.826 85.3346 32.5617C85.836 33.2974 86.5306 33.8806 87.3421 34.247C88.3609 34.7055 89.4701 34.9284 90.587 34.899C91.7039 34.8695 92.7998 34.5886 93.7931 34.077C94.3345 33.8332 94.7881 33.4291 95.0925 32.9192C95.3969 32.4094 95.5374 31.8183 95.4951 31.226C95.5262 30.6548 95.3703 30.089 95.0508 29.6144C94.7314 29.1398 94.266 28.7822 93.7251 28.596C92.397 28.102 90.9851 27.83 89.6321 27.396C88.2242 26.9952 86.8475 26.4918 85.5131 25.89C83.3331 24.826 83.1981 20.682 85.6661 19.37C86.9298 18.6569 88.3519 18.2716 89.8028 18.2493C91.2536 18.2269 92.687 18.5682 93.9721 19.242C95.5661 20.122 96.4471 21.899 96.1851 23.702H95.1501C95.1501 23.652 95.0561 23.608 95.0561 23.557C94.9281 20.257 92.1541 19.225 89.1761 19.515C88.2761 19.615 87.4231 19.887 86.6231 20.289C86.1422 20.5086 85.7414 20.8723 85.4762 21.3297C85.2111 21.7871 85.0947 22.3156 85.1431 22.842C85.1441 23.3689 85.3082 23.8825 85.613 24.3123C85.9178 24.742 86.3482 25.0668 86.8451 25.242C88.1451 25.719 89.5251 26.025 90.8701 26.399L94.1201 27.249C94.8587 27.4915 95.5064 27.9525 95.9775 28.571C96.4485 29.1895 96.7207 29.9365 96.7581 30.713C97.0181 32.458 96.1281 34.173 94.5541 34.968C91.7121 36.576 87.0311 36.151 84.9461 34.118C83.8791 33.045 83.284 31.588 83.2961 30.076L83.2931 30.077ZM112.073 23.703H110.941C110.941 23.55 110.881 23.403 110.864 23.286C110.846 22.4375 110.537 21.621 109.988 20.9734C109.44 20.3258 108.685 19.8864 107.851 19.729C106.278 19.2778 104.6 19.3586 103.077 19.959C102.475 20.1313 101.945 20.4939 101.566 20.9924C101.187 21.491 100.98 22.0988 100.975 22.725C100.954 23.3399 101.145 23.9433 101.517 24.4333C101.889 24.9233 102.419 25.2697 103.017 25.414L108.191 26.742C108.751 26.8762 109.302 27.0439 109.841 27.244C111.491 27.844 112.611 29.376 112.661 31.127C112.686 31.9841 112.451 32.8286 111.987 33.5497C111.523 34.2707 110.851 34.8345 110.061 35.167C108.86 35.7125 107.559 36.0011 106.24 36.0144C104.921 36.0277 103.614 35.7653 102.402 35.244C101.406 34.8144 100.565 34.0898 99.9927 33.1678C99.4206 32.2457 99.1446 31.1706 99.2021 30.087H100.308C100.724 32.092 102.101 33.762 103.99 34.552C105.879 35.342 108.036 35.148 109.754 34.036C110.27 33.768 110.697 33.3578 110.987 32.8542C111.277 32.3505 111.416 31.7744 111.388 31.194C111.414 30.6224 111.252 30.058 110.928 29.5864C110.604 29.1149 110.135 28.7619 109.592 28.581C108.264 28.087 106.852 27.824 105.499 27.381C104.083 26.9864 102.698 26.4887 101.355 25.892C99.2271 24.845 99.0571 20.735 101.483 19.424C102.762 18.681 104.212 18.2818 105.692 18.2654C107.171 18.2489 108.629 18.6157 109.925 19.33C110.666 19.7723 111.263 20.4205 111.642 21.1956C112.021 21.9708 112.167 22.8395 112.061 23.696L112.073 23.703ZM37.9431 35.533C37.4975 35.7015 37.0056 35.7011 36.5603 35.5318C36.115 35.3625 35.7471 35.036 35.5261 34.614L31.1261 28.529L30.4881 27.679L25.3821 34.623C25.1739 35.0269 24.8259 35.3411 24.403 35.5071C23.9802 35.6731 23.5113 35.6795 23.0841 35.525L29.6621 26.7L23.5421 18.726C24.4501 18.398 25.4621 18.754 25.9671 19.576L30.5271 25.736L35.1141 19.6C35.3237 19.2031 35.6719 18.8971 36.0925 18.7402C36.5131 18.5833 36.9767 18.5864 37.3951 18.749L35.0201 21.9L31.8031 26.087C31.7138 26.1668 31.6423 26.2645 31.5934 26.3737C31.5445 26.483 31.5192 26.6013 31.5192 26.721C31.5192 26.8407 31.5445 26.9591 31.5934 27.0683C31.6423 27.1776 31.7138 27.2753 31.8031 27.355L37.9301 35.533H37.9431ZM65.8731 18.641V19.841C65.0123 19.7846 64.1493 19.9092 63.3398 20.2069C62.5302 20.5046 61.792 20.9688 61.1729 21.5694C60.5538 22.17 60.0676 22.8938 59.7455 23.694C59.4234 24.4942 59.2727 25.353 59.3031 26.215C59.3031 29.0177 59.3031 31.8204 59.3031 34.623V35.576H58.0861V18.716H59.2861V22.171C60.7581 19.651 63.03 18.716 65.8811 18.648L65.8731 18.641ZM7.33306 26.59L7.86905 23.943C9.34105 18.709 15.3411 16.531 19.4691 19.773C21.8861 21.671 22.4891 24.36 22.3711 27.39H8.75405C8.53405 32.802 12.4391 36.07 17.4341 34.402C19.0801 33.802 20.3191 32.434 20.7271 30.734C20.9911 29.884 21.4271 29.738 22.2251 29.984C22.092 31.0202 21.7257 32.0126 21.1538 32.8868C20.5818 33.761 19.8191 34.4941 18.9231 35.031C17.4426 35.8407 15.7441 36.1615 14.0703 35.9475C12.3966 35.7336 10.8333 34.996 9.60405 33.84C8.38805 32.473 7.65405 30.745 7.51105 28.92C7.51105 28.62 7.41105 28.34 7.34105 28.07C7.33439 27.5654 7.33105 27.072 7.33105 26.59H7.33306ZM8.77105 26.224H21.0851C21.0081 22.301 18.5321 19.518 15.2301 19.492C11.5541 19.442 8.92405 22.164 8.76205 26.207L8.77105 26.224Z" fill="white"/>
</svg>
