<svg width="38" height="37" viewBox="0 0 38 37" fill="none" xmlns="http://www.w3.org/2000/svg">
<path d="M18.6135 37C28.8934 37 37.227 28.7173 37.227 18.5C37.227 8.28273 28.8934 0 18.6135 0C8.33355 0 0 8.28273 0 18.5C0 28.7173 8.33355 37 18.6135 37Z" fill="black"/>
<path d="M18.6135 37C28.8934 37 37.227 28.7173 37.227 18.5C37.227 8.28273 28.8934 0 18.6135 0C8.33355 0 0 8.28273 0 18.5C0 28.7173 8.33355 37 18.6135 37Z" fill="white"/>
<path d="M30.9206 32.3791L14.2996 11.1H11.168V25.8938H13.6733V14.2622L28.954 33.8848C29.6435 33.4262 30.3004 32.9228 30.9206 32.3791Z" fill="url(#paint0_linear_83_215)"/>
<path d="M26.2657 11.1H23.7839V25.9H26.2657V11.1Z" fill="url(#paint1_linear_83_215)"/>
<defs>
<linearGradient id="paint0_linear_83_215" x1="22.5429" y1="23.9472" x2="29.8305" y2="33.0352" gradientUnits="userSpaceOnUse">
<stop/>
<stop offset="1" stop-color="white" stop-opacity="0"/>
</linearGradient>
<linearGradient id="paint1_linear_83_215" x1="25.0248" y1="11.1" x2="24.9838" y2="21.9687" gradientUnits="userSpaceOnUse">
<stop/>
<stop offset="1" stop-color="white" stop-opacity="0"/>
</linearGradient>
</defs>
</svg>
