<svg width="38" height="38" viewBox="0 0 38 38" fill="none" xmlns="http://www.w3.org/2000/svg">
<path fill-rule="evenodd" clip-rule="evenodd" d="M18.9999 2.62317L33.1826 10.8116V27.1884L18.9999 35.3768L4.81714 27.1884V10.8116L18.9999 2.62317ZM6.40846 11.7303V23.7595L16.8261 5.71573L6.40846 11.7303ZM18.9999 5.13327L6.99093 25.9334H31.0088L18.9999 5.13327ZM29.4175 27.5247H8.58225L18.9999 33.5393L29.4175 27.5247ZM31.5913 23.7595L21.1737 5.71573L31.5913 11.7303V23.7595Z" fill="white"/>
<path d="M19 6.89357C20.8511 6.89357 22.3516 5.39301 22.3516 3.54197C22.3516 1.69093 20.8511 0.190369 19 0.190369C17.149 0.190369 15.6484 1.69093 15.6484 3.54197C15.6484 5.39301 17.149 6.89357 19 6.89357Z" fill="white"/>
<path d="M32.387 14.6226C34.238 14.6226 35.7386 13.122 35.7386 11.271C35.7386 9.41993 34.238 7.91937 32.387 7.91937C30.536 7.91937 29.0354 9.41993 29.0354 11.271C29.0354 13.122 30.536 14.6226 32.387 14.6226Z" fill="white"/>
<path d="M32.387 30.0806C34.238 30.0806 35.7386 28.5801 35.7386 26.729C35.7386 24.878 34.238 23.3774 32.387 23.3774C30.536 23.3774 29.0354 24.878 29.0354 26.729C29.0354 28.5801 30.536 30.0806 32.387 30.0806Z" fill="white"/>
<path d="M19 37.8096C20.8511 37.8096 22.3516 36.3091 22.3516 34.458C22.3516 32.607 20.8511 31.1064 19 31.1064C17.149 31.1064 15.6484 32.607 15.6484 34.458C15.6484 36.3091 17.149 37.8096 19 37.8096Z" fill="white"/>
<path d="M5.61112 30.0806C7.46216 30.0806 8.96272 28.5801 8.96272 26.729C8.96272 24.878 7.46216 23.3774 5.61112 23.3774C3.76008 23.3774 2.25952 24.878 2.25952 26.729C2.25952 28.5801 3.76008 30.0806 5.61112 30.0806Z" fill="white"/>
<path d="M5.61112 14.6226C7.46216 14.6226 8.96272 13.122 8.96272 11.271C8.96272 9.41993 7.46216 7.91937 5.61112 7.91937C3.76008 7.91937 2.25952 9.41993 2.25952 11.271C2.25952 13.122 3.76008 14.6226 5.61112 14.6226Z" fill="white"/>
</svg>
