<svg width="120" height="30" viewBox="0 0 120 30" fill="none" xmlns="http://www.w3.org/2000/svg">
<path fill-rule="evenodd" clip-rule="evenodd" d="M18.9363 18.8457C18.0738 18.8262 17.3993 18.9105 16.8351 19.1505C16.673 19.2153 16.4136 19.2153 16.3942 19.4228C16.4785 19.5071 16.4914 19.6498 16.5693 19.7665C16.7177 20.0179 16.9086 20.2417 17.1335 20.428L17.8274 20.9274C18.2489 21.1868 18.7223 21.3359 19.1373 21.5953C19.3773 21.7445 19.6107 21.939 19.7858 22.1012C19.9026 22.1855 19.9804 22.3281 20.1295 22.38V22.3476C20.0517 22.2503 20.0323 22.1076 19.9545 22.0039L19.6302 21.6926C19.3142 21.2742 18.9358 20.9067 18.5083 20.6031C18.1646 20.3632 17.4058 20.0389 17.2632 19.6433L17.2437 19.6239C17.4836 19.6044 17.7625 19.5136 17.9895 19.4488C18.3591 19.3515 18.6899 19.3709 19.0725 19.2737L19.5913 19.1245V19.0272C19.3967 18.8327 19.2541 18.5733 19.053 18.3917C18.5018 17.9183 17.8987 17.4514 17.2696 17.0623C16.9324 16.8483 16.5044 16.7056 16.1477 16.524C16.018 16.4592 15.804 16.4267 15.7262 16.3165C15.5316 16.0765 15.4214 15.7653 15.2852 15.4864L14.3968 13.6057C14.2022 13.1842 14.0855 12.7627 13.8455 12.3736C12.844 10.6704 11.3981 9.27155 9.66268 8.32691C9.26061 8.09994 8.7872 8.00266 8.28136 7.88593L7.47073 7.84053C7.29564 7.76271 7.12702 7.56168 6.97138 7.4644C6.3553 7.0753 4.76647 6.23224 4.37736 7.34767C4.08554 8.04805 4.81186 8.74195 5.05829 9.09863C5.23987 9.34506 5.47982 9.63041 5.60952 9.90926C5.68734 10.0908 5.7068 10.2854 5.78462 10.4799L6.34882 11.9261C6.4659 12.1585 6.6003 12.3818 6.75089 12.5941C6.8352 12.7108 6.99084 12.7692 7.02326 12.9637C6.87411 13.1777 6.86114 13.502 6.77683 13.7744C6.38773 14.9935 6.53689 16.511 7.08811 17.406C7.26321 17.6784 7.73662 18.2685 8.223 18.0415C8.70938 17.847 8.59913 17.2309 8.7418 16.6926C8.77423 16.5629 8.75477 16.4786 8.81962 16.3878V16.4073L9.26061 17.3022C9.59783 17.834 10.1815 18.3852 10.6679 18.7484C10.9273 18.9429 11.1348 19.2802 11.459 19.3969V19.3645H11.4136C11.3488 19.2672 11.2515 19.2218 11.1672 19.1505C10.9617 18.9501 10.773 18.7332 10.603 18.502C10.1451 17.8816 9.73952 17.2244 9.39031 16.537C9.21521 16.1998 9.06605 15.8366 8.92338 15.4994C8.85853 15.3697 8.85853 15.1751 8.74829 15.1103C8.58616 15.3502 8.34621 15.5513 8.22948 15.8431C8.02196 16.31 8.00251 16.8807 7.92469 17.4773C7.53558 17.4125 7.41885 17.0558 7.28915 16.751C6.9649 15.9858 6.91302 14.7406 7.19187 13.8651C7.2697 13.6382 7.59395 12.9248 7.46425 12.7108C7.3994 12.5033 7.18539 12.3866 7.06217 12.2244C6.9195 12.0169 6.77035 11.7575 6.67307 11.5305C6.485 10.9209 6.29045 10.2465 6.0116 9.64338C5.88189 9.36452 5.65492 9.07918 5.46685 8.81978C5.26582 8.52146 5.03884 8.31394 4.87671 7.97672C4.81835 7.84702 4.74701 7.65247 4.83132 7.52277C4.85077 7.43846 4.89617 7.40603 4.98047 7.38009C5.12314 7.26336 5.51873 7.41252 5.6614 7.47737C6.06348 7.6395 6.39421 7.78865 6.73144 8.01563C6.88059 8.12587 7.04272 8.32691 7.23727 8.38528H7.46425C7.80795 8.4631 8.19706 8.40473 8.52131 8.50201C9.09199 8.68359 9.6108 8.95596 10.0777 9.24779C11.5089 10.1601 12.6725 11.4356 13.4499 12.9443C13.5796 13.1907 13.6315 13.4177 13.7547 13.6771L14.4876 15.2659C14.7145 15.7717 14.9285 16.2906 15.2528 16.7121C15.4149 16.9391 16.0634 17.0558 16.3553 17.179C16.5693 17.2763 16.9065 17.3606 17.101 17.4838L18.184 18.2166C18.3591 18.3463 18.8325 18.6187 18.9298 18.8327L18.9363 18.8457Z" fill="white"/>
<path fill-rule="evenodd" clip-rule="evenodd" d="M7.91169 9.44885C7.73011 9.44885 7.6004 9.46831 7.4707 9.50073V9.52019H7.49016C7.57446 9.69528 7.73011 9.81202 7.83387 9.96117L8.0803 10.48L8.09975 10.4605C8.24891 10.3503 8.32673 10.1817 8.32673 9.92226C8.26188 9.84444 8.24891 9.7731 8.19703 9.69528C8.13218 9.58504 7.98951 9.53316 7.9052 9.44885H7.91169Z" fill="white"/>
<path fill-rule="evenodd" clip-rule="evenodd" d="M65.2656 21.6601H74.5652C75.6547 21.6601 76.6923 21.4396 77.5353 21.044C78.9426 20.3955 79.6106 19.533 79.6106 18.3981V16.0246C79.6106 15.1167 78.8453 14.2412 77.3148 13.6511C76.4342 13.3385 75.5061 13.1805 74.5717 13.1842H70.6677C69.3577 13.1842 68.7416 12.7951 68.5665 11.9261C68.5406 11.8288 68.5406 11.7315 68.5406 11.6277V10.1686C68.5406 10.0908 68.5406 9.99352 68.5665 9.89624C68.7416 9.22828 69.0853 9.05318 70.2267 8.92348H79.7467V6.77045H70.6871C69.3771 6.77045 68.6768 6.84827 68.0672 7.04282C66.1606 7.62647 65.324 8.57329 65.324 10.2335V12.1141C65.324 13.5733 66.9582 14.8119 69.7338 15.0972C70.0321 15.1232 70.3499 15.1232 70.6742 15.1232H74.014C74.1437 15.1232 74.2604 15.1232 74.3577 15.1491C75.3693 15.2464 75.8168 15.4215 76.1086 15.7976C76.3032 15.9922 76.3551 16.1673 76.3551 16.3943V18.2749C76.3551 18.4954 76.2059 18.7937 75.9011 19.0402C75.5963 19.2866 75.1359 19.4617 74.5133 19.4941C74.3836 19.4941 74.3187 19.5201 74.189 19.5201H65.2656V21.6601ZM99.7337 17.9247C99.7337 20.1296 101.394 21.3618 104.708 21.6082L105.648 21.6601H114.053V19.5201H105.577C103.631 19.5201 102.983 19.0531 102.983 17.9118V6.77693H99.7401V17.9312L99.7337 17.9247ZM81.6598 18.022V10.3632C81.6598 8.41765 83.0411 7.2244 85.7454 6.86124L86.6079 6.80936H92.7428C93.067 6.80936 93.3394 6.8353 93.6507 6.86124C96.3485 7.23088 97.7038 8.41765 97.7038 10.3632V18.0285C97.7038 19.6108 97.1332 20.4539 95.7972 21.0116L98.9619 23.878H95.2265L92.652 21.5564L90.058 21.7055H86.5949C86.0243 21.7055 85.3822 21.6407 84.6494 21.4591C82.6002 20.8884 81.582 19.7989 81.582 18.022H81.6598ZM85.1488 17.8534C85.1488 17.9507 85.2007 18.0479 85.2266 18.1776C85.4017 19.0661 86.2383 19.559 87.5223 19.559H90.4406L87.7687 17.1336H91.5041L93.8517 19.2607C94.3057 19.0142 94.5651 18.664 94.6688 18.223C94.6948 18.1258 94.6948 18.0026 94.6948 17.8988V10.5707C94.6948 10.4734 94.6948 10.3761 94.6688 10.2724C94.4937 9.42932 93.6572 8.96239 92.3991 8.96239H87.5353C86.1086 8.96239 85.1618 9.57847 85.1618 10.5707L85.1488 17.8534Z" fill="white"/>
<path fill-rule="evenodd" clip-rule="evenodd" d="M22.3411 21.6731H25.5576V8.93648L30.5771 20.0389C31.1478 21.3748 31.9649 21.8677 33.5472 21.8677C35.1296 21.8677 35.8948 21.3748 36.4914 20.0389L41.4849 8.93648V21.6731H44.7275V8.93648C44.7275 7.70432 44.2346 7.10769 43.197 6.78344C40.7521 6.04415 39.1114 6.68616 38.3721 8.33985L33.4435 19.319L28.6964 8.33985C27.9831 6.68616 26.3229 6.04415 23.8521 6.78344C22.8404 7.10769 22.3411 7.69135 22.3411 8.93648V21.6731ZM47.3928 11.31H50.6353V18.3139C50.6094 18.703 50.765 19.5979 52.5808 19.6238H59.5328V11.2581H62.7753V22.7042C62.7753 25.5252 59.2864 26.1413 57.6522 26.1673H47.4706V24.0142H57.6846C59.7598 23.7937 59.5134 22.7561 59.5134 22.4059V21.5629H52.6587C49.468 21.5369 47.4187 20.1362 47.3928 18.5149V11.31Z" fill="white"/>
</svg>
