<svg width="33" height="37" viewBox="0 0 33 37" fill="none" xmlns="http://www.w3.org/2000/svg">
<g clip-path="url(#clip0_83_180)">
<path d="M16.1875 36.7109C15.7033 36.7109 15.2119 36.5809 14.7855 36.3351L10.3267 33.6975C9.66186 33.3217 9.98706 33.1916 10.2039 33.1193C11.0927 32.8086 11.2734 32.7435 12.2201 32.2016C12.3212 32.1437 12.4513 32.1654 12.5525 32.2305L15.9779 34.2611C16.1007 34.3334 16.2742 34.3334 16.3898 34.2611L29.7373 26.5576C29.8601 26.4853 29.9396 26.3408 29.9396 26.1963V10.7892C29.9396 10.6375 29.8601 10.5002 29.73 10.4207L16.3898 2.7244C16.2669 2.65214 16.1007 2.65214 15.9779 2.7244L2.64487 10.4279C2.51479 10.5002 2.4353 10.6447 2.4353 10.7965V26.1963C2.4353 26.3408 2.51479 26.4853 2.64487 26.5504L6.30151 28.6605C8.28882 29.6506 9.50288 28.4871 9.50288 27.3092V12.1045C9.50288 11.8877 9.67632 11.7215 9.89311 11.7215H11.5841C11.7937 11.7215 11.9744 11.8877 11.9744 12.1045V27.3164C11.9744 29.9613 10.5291 31.4789 8.02143 31.4789C7.24819 31.4789 6.64116 31.4789 4.95015 30.6406L1.45249 28.6244C0.585303 28.1258 0.0505371 27.1935 0.0505371 26.1891V10.7892C0.0505371 9.79198 0.585303 8.85253 1.45249 8.35389L14.7855 0.650378C15.631 0.173425 16.7511 0.173425 17.5894 0.650378L30.9369 8.36112C31.804 8.85975 32.3388 9.79198 32.3388 10.7965V26.1963C32.3388 27.1935 31.804 28.1258 30.9369 28.6316L17.5894 36.3351C17.163 36.5809 16.6789 36.7109 16.1875 36.7109ZM26.9623 21.5279C26.9623 18.6445 25.0111 17.8785 20.9136 17.3365C16.7656 16.7873 16.3464 16.5055 16.3464 15.5371C16.3464 14.735 16.7005 13.6654 19.7718 13.6654C22.5107 13.6654 23.5224 14.258 23.9415 16.108C23.9777 16.2814 24.1367 16.4115 24.3173 16.4115H26.0517C26.1601 16.4115 26.2613 16.3682 26.3335 16.2887C26.4058 16.2092 26.4419 16.1008 26.4347 15.9924C26.1673 12.8055 24.0499 11.324 19.7718 11.324C15.9634 11.324 13.6943 12.9283 13.6943 15.6238C13.6943 18.5433 15.9562 19.3527 19.6056 19.7141C23.9777 20.1404 24.3173 20.7836 24.3173 21.6435C24.3173 23.1322 23.1177 23.7682 20.3066 23.7682C16.7728 23.7682 15.9996 22.8793 15.7394 21.1232C15.7105 20.9353 15.5515 20.798 15.3564 20.798H13.6292C13.4125 20.798 13.2462 20.9715 13.2462 21.181C13.2462 23.4285 14.4675 26.1096 20.3138 26.1096C24.5341 26.1023 26.9623 24.433 26.9623 21.5279Z" fill="white"/>
</g>
<defs>
<clipPath id="clip0_83_180">
<rect width="32.375" height="37" fill="white"/>
</clipPath>
</defs>
</svg>
