<svg width="90" height="55" viewBox="0 0 90 55" fill="none" xmlns="http://www.w3.org/2000/svg">
<path fill-rule="evenodd" clip-rule="evenodd" d="M57.1659 33.4018H54.8169V24.8106H57.1659V33.4018ZM55.9959 21.4455C55.1431 21.4455 54.7179 21.8271 54.7179 22.5904C54.7179 23.3581 55.1431 23.742 55.9959 23.742C56.4211 23.742 56.7407 23.641 56.9544 23.439C57.1682 23.2369 57.2739 22.9541 57.2739 22.5904C57.2739 21.8271 56.8464 21.4455 55.9959 21.4455ZM86.0334 29.4508L86.9424 29.4194V30.1265C86.9424 30.6451 86.7781 31.0581 86.4541 31.3724C86.1279 31.6845 85.6936 31.8416 85.1491 31.8416C84.3886 31.8416 84.0084 31.5116 84.0084 30.8494C84.0084 30.3892 84.1749 30.0457 84.5101 29.819C84.8431 29.5945 85.3516 29.4733 86.0334 29.4508ZM87.1832 32.2322L87.6376 33.3996H89.2779V27.6751C89.2779 26.6514 88.9696 25.8881 88.3531 25.3853C87.7366 24.8824 86.8501 24.631 85.6959 24.631C84.4899 24.631 83.3896 24.8892 82.3996 25.4077L83.1781 26.9904C84.1074 26.5751 84.9151 26.3686 85.6036 26.3686C86.4969 26.3686 86.9447 26.8041 86.9447 27.6751V28.0522L85.4506 28.0994C84.1614 28.1465 83.1984 28.3845 82.5594 28.8177C81.9204 29.251 81.6009 29.9222 81.6009 30.8337C81.6009 31.7047 81.8394 32.3759 82.3141 32.8473C82.7889 33.3188 83.4391 33.5545 84.2671 33.5545C84.9399 33.5545 85.4844 33.4579 85.9029 33.2671C86.3214 33.0741 86.7286 32.7306 87.1246 32.2345H87.1832V32.2322ZM72.3916 33.4018H74.7406V29.0916C74.7406 28.2004 74.8824 27.5494 75.1681 27.1408C75.4539 26.7322 75.8836 26.5257 76.4574 26.5257C76.9051 26.5257 77.2314 26.6806 77.4406 26.9904C77.6476 27.3002 77.7534 27.7649 77.7534 28.3845V33.4018H80.1092V27.8008C80.1092 26.6986 79.8594 25.8994 79.3577 25.3988C78.8582 24.9004 78.1179 24.649 77.1436 24.649C76.5789 24.649 76.0726 24.759 75.6226 24.979C75.1726 25.199 74.8329 25.5088 74.6011 25.9084H74.3942C73.9374 25.0688 73.0644 24.649 71.7751 24.649C71.2104 24.649 70.7087 24.7612 70.2722 24.9835C69.8357 25.2057 69.5026 25.5155 69.2709 25.9084H69.1404L68.8254 24.8106H67.0299V33.4018H69.3789V29.361C69.3789 28.3508 69.5139 27.6279 69.7861 27.1857C70.0584 26.7457 70.4949 26.5257 71.0957 26.5257C71.5434 26.5257 71.8697 26.6806 72.0789 26.9904C72.2859 27.3002 72.3916 27.7649 72.3916 28.3845V33.4018ZM65.4347 30.8494C65.4347 31.7316 65.1287 32.4006 64.5144 32.863C63.9002 33.3233 62.9821 33.5545 61.7604 33.5545C61.1349 33.5545 60.5994 33.5118 60.1584 33.4265C59.7174 33.3412 59.3034 33.2177 58.9186 33.0539V31.1165C59.3551 31.3208 59.8457 31.4937 60.3947 31.6306C60.9414 31.7698 61.4229 31.8371 61.8391 31.8371C62.6919 31.8371 63.1171 31.5924 63.1171 31.1008C63.1171 30.9167 63.0609 30.7663 62.9484 30.6518C62.8359 30.5373 62.6402 30.4071 62.3634 30.259C62.0867 30.113 61.7154 29.9424 61.2541 29.7471C60.5926 29.471 60.1044 29.2151 59.7939 28.9794C59.4834 28.7437 59.2561 28.4743 59.1166 28.169C58.9749 27.8637 58.9051 27.4888 58.9051 27.0443C58.9051 26.281 59.2021 25.6906 59.7939 25.273C60.3856 24.8555 61.2271 24.6467 62.3161 24.6467C63.3534 24.6467 64.3614 24.8712 65.3424 25.3224L64.6337 27.0128C64.2017 26.8288 63.7989 26.6784 63.4254 26.5594C63.0497 26.4426 62.6672 26.382 62.2779 26.382C61.5849 26.382 61.2384 26.5684 61.2384 26.9433C61.2384 27.1543 61.3509 27.3361 61.5736 27.4888C61.7964 27.6414 62.2869 27.8704 63.0406 28.1735C63.7134 28.4451 64.2061 28.6988 64.5189 28.9345C64.8316 29.1702 65.0634 29.4418 65.2119 29.7494C65.3604 30.0592 65.4347 30.4251 65.4347 30.8494ZM52.7761 24.649C53.0956 24.649 53.3589 24.6714 53.5704 24.7186L53.3926 26.9163C53.2036 26.8647 52.9719 26.84 52.6996 26.84C51.9504 26.84 51.3654 27.033 50.9469 27.4169C50.5284 27.8008 50.3191 28.3396 50.3191 29.031V33.4041H47.9701V24.8128H49.7499L50.0964 26.2563H50.2112C50.4789 25.7759 50.8389 25.3875 51.2934 25.0912C51.7479 24.7971 52.2429 24.649 52.7761 24.649ZM41.8434 27.4528H41.0581V24.1192H42.1449C42.7974 24.1192 43.2766 24.2516 43.5804 24.5188C43.8864 24.7859 44.0394 25.1967 44.0394 25.7557C44.0394 26.3079 43.8572 26.73 43.4927 27.0196C43.1259 27.3092 42.5769 27.4528 41.8434 27.4528ZM45.3129 28.4451C46.0711 27.8053 46.4491 26.8804 46.4491 25.6704C46.4491 24.5075 46.0936 23.632 45.3826 23.0461C44.6716 22.4602 43.6344 22.1661 42.2664 22.1661H38.6709V33.3996H41.0581V29.4037H42.0819C43.4791 29.4059 44.5546 29.0849 45.3129 28.4451Z" fill="white"/>
<path fill-rule="evenodd" clip-rule="evenodd" d="M29.3603 36.5941L17.3881 11.2312C17.0888 10.5982 16.4611 10.1784 15.7523 10.1402C15.0233 10.0976 14.3708 10.4478 14.0041 11.0449L1.02157 32.0257C0.618825 32.679 0.627824 33.4849 1.04407 34.1314L7.39132 43.9394C7.76932 44.5253 8.42408 44.8643 9.10583 44.8643C9.29933 44.8643 9.49283 44.8374 9.68408 44.7812L28.1071 39.3441C28.6718 39.178 29.1331 38.7784 29.3738 38.2508C29.6123 37.7233 29.6078 37.1194 29.3603 36.5941ZM26.6783 37.6829L11.0498 42.2939C10.5728 42.4353 10.1138 42.0223 10.2151 41.5418L15.7973 14.8612C15.9008 14.3629 16.5938 14.2821 16.8121 14.7445L27.1508 36.6502C27.3466 37.0633 27.1238 37.5504 26.6783 37.6829Z" fill="white"/>
</svg>
