<svg width="42" height="43" viewBox="0 0 42 43" fill="none" xmlns="http://www.w3.org/2000/svg">
<path d="M34.3055 15.0359C33.8625 14.8883 33.4195 14.7488 32.9766 14.6176C33.0504 14.3141 33.116 14.0106 33.1816 13.707C34.1906 8.81798 33.5262 4.88868 31.2867 3.59259C29.1293 2.35392 25.6102 3.64181 22.05 6.74259C21.6973 7.04611 21.3527 7.36603 21.0246 7.68595C20.8031 7.47267 20.5734 7.25939 20.3438 7.05431C16.6113 3.74025 12.8707 2.34572 10.6313 3.65001C8.48203 4.89689 7.84219 8.5965 8.74453 13.2231C8.83477 13.6824 8.9332 14.1336 9.04805 14.593C8.52305 14.7406 8.00625 14.9047 7.52227 15.077C3.1418 16.5945 0 18.9899 0 21.4672C0 24.0266 3.34688 26.5942 7.89961 28.1527C8.26875 28.2758 8.63789 28.3988 9.01523 28.5055C8.89219 28.9977 8.78555 29.4816 8.68711 29.982C7.82578 34.5348 8.49844 38.1441 10.6477 39.3828C12.8625 40.6625 16.5867 39.35 20.2125 36.1754C20.4996 35.9211 20.7867 35.6586 21.0738 35.3797C21.4348 35.7324 21.8121 36.0688 22.1895 36.3969C25.7004 39.4156 29.1703 40.6379 31.3113 39.3992C33.5262 38.1195 34.248 34.2395 33.3129 29.5145C33.2391 29.1535 33.157 28.7844 33.0668 28.407C33.3293 28.3332 33.5836 28.2512 33.8379 28.1691C38.5711 26.6024 42 24.0676 42 21.4672C42 18.9817 38.768 16.5699 34.3055 15.0359ZM23.2066 8.0715C26.2582 5.41368 29.1047 4.37189 30.4008 5.11837C31.7871 5.91407 32.3203 9.1297 31.4508 13.3543C31.3934 13.6332 31.3359 13.9039 31.2621 14.1746C29.441 13.7645 27.5953 13.4692 25.7414 13.3051C24.675 11.7793 23.5102 10.3192 22.2469 8.94923C22.5668 8.64571 22.8785 8.35861 23.2066 8.0715ZM13.7156 25.7246C14.134 26.4383 14.5605 27.152 15.0117 27.8492C13.732 27.7098 12.4605 27.5047 11.2055 27.234C11.5664 26.0527 12.0176 24.8305 12.5426 23.5836C12.9199 24.3055 13.3055 25.0191 13.7156 25.7246ZM11.2301 15.8563C12.4113 15.5938 13.6664 15.3805 14.9707 15.2164C14.5359 15.8973 14.1094 16.5945 13.7074 17.3C13.3055 17.9973 12.9117 18.7109 12.5426 19.4328C12.0258 18.2106 11.591 17.0129 11.2301 15.8563ZM13.4777 21.5082C14.0191 20.3762 14.6098 19.2688 15.2332 18.1777C15.8566 17.0867 16.5293 16.0285 17.2348 14.9867C18.4652 14.8965 19.7203 14.8473 21 14.8473C22.2797 14.8473 23.543 14.8965 24.7652 14.9867C25.4625 16.0203 26.127 17.0785 26.7586 18.1613C27.3902 19.2442 27.9809 20.3516 28.5387 21.4754C27.9891 22.6074 27.3984 23.7231 26.7668 24.8223C26.1434 25.9133 25.4789 26.9715 24.7816 28.0215C23.5594 28.1117 22.2879 28.1527 21 28.1527C19.7121 28.1527 18.4652 28.1117 17.2594 28.0379C16.5457 26.9961 15.873 25.9297 15.2414 24.8387C14.6098 23.7477 14.0273 22.6402 13.4777 21.5082ZM28.2926 25.7082C28.7109 24.9863 29.1047 24.2563 29.4902 23.518C30.0152 24.7074 30.4746 25.9133 30.8766 27.152C29.6051 27.4391 28.3172 27.6606 27.0211 27.8082C27.4641 27.1191 27.8824 26.4137 28.2926 25.7082ZM29.4738 19.4328C29.0883 18.7109 28.6945 17.9891 28.2844 17.2836C27.8824 16.5863 27.4641 15.8973 27.0293 15.2164C28.35 15.3805 29.6133 15.602 30.7945 15.8727C30.4172 17.0867 29.9742 18.268 29.4738 19.4328ZM21.0164 10.2043C21.8777 11.1395 22.6898 12.1238 23.4445 13.141C21.8203 13.0672 20.1879 13.0672 18.5637 13.141C19.3676 12.0828 20.1961 11.0984 21.0164 10.2043ZM11.5008 5.17579C12.8789 4.37189 15.9387 5.52032 19.1625 8.37501C19.3676 8.55548 19.5727 8.75236 19.7859 8.94923C18.5145 10.3192 17.3414 11.7793 16.2668 13.3051C14.4129 13.4692 12.5754 13.7563 10.7543 14.1582C10.6477 13.7399 10.5574 13.3133 10.4672 12.8867C9.69609 8.91642 10.2047 5.92228 11.5008 5.17579ZM9.49102 26.7992C9.14648 26.7008 8.81016 26.5942 8.47383 26.4793C6.72656 25.9297 4.74141 25.0602 3.30586 23.9199C2.47734 23.3457 1.91953 22.4598 1.76367 21.4672C1.76367 19.966 4.35586 18.0465 8.09648 16.7422C8.56406 16.5781 9.03984 16.4305 9.51562 16.291C10.0734 18.0711 10.7461 19.8184 11.5254 21.5082C10.7379 23.2227 10.057 24.9945 9.49102 26.7992ZM19.0559 34.8383C17.7023 36.077 16.1355 37.0613 14.4293 37.734C13.5187 38.1688 12.4688 38.2098 11.5336 37.8406C10.2293 37.0859 9.68789 34.1902 10.4262 30.2938C10.5164 29.8344 10.6148 29.375 10.7297 28.9238C12.5672 29.3176 14.4211 29.5883 16.2996 29.7277C17.3824 31.2617 18.5719 32.7301 19.8434 34.1082C19.5809 34.3625 19.3184 34.6086 19.0559 34.8383ZM21.0656 32.8449C20.2289 31.9426 19.3922 30.9418 18.5801 29.8672C19.3676 29.9 20.1797 29.9164 21 29.9164C21.8449 29.9164 22.6734 29.9 23.4937 29.859C22.7391 30.9008 21.927 31.8934 21.0656 32.8449ZM31.7871 35.3059C31.7133 36.3066 31.2211 37.2418 30.4336 37.8734C29.1293 38.6281 26.3484 37.6438 23.3461 35.068C23.0016 34.7727 22.657 34.4527 22.3043 34.1246C23.5594 32.7383 24.716 31.2699 25.766 29.7277C27.6445 29.5719 29.5148 29.2848 31.3605 28.8664C31.4426 29.2027 31.5164 29.5391 31.582 29.8672C31.984 31.6391 32.0496 33.4848 31.7871 35.3059ZM33.2801 26.4875C33.0504 26.5613 32.8207 26.6352 32.5828 26.7008C32.0086 24.9125 31.3031 23.1652 30.491 21.4672C31.2785 19.7938 31.943 18.0711 32.5008 16.3074C32.9273 16.4305 33.3375 16.5617 33.7313 16.693C37.5539 18.0055 40.2363 19.9578 40.2363 21.4508C40.2363 23.0586 37.3734 25.134 33.2801 26.4875ZM21 25.257C23.0754 25.257 24.757 23.5754 24.757 21.5C24.757 19.4246 23.0754 17.743 21 17.743C18.9246 17.743 17.243 19.4246 17.243 21.5C17.243 23.5754 18.9246 25.257 21 25.257Z" fill="white"/>
</svg>
