<svg width="49" height="39" viewBox="0 0 49 39" fill="none" xmlns="http://www.w3.org/2000/svg">
<g clip-path="url(#clip0_83_182)">
<path d="M22.9917 28.863C22.946 28.9453 22.9688 28.9087 22.9917 28.863V28.863ZM41.9684 22.2361C40.4364 22.2356 38.9248 22.5874 37.5504 23.2644C37.101 22.358 36.6364 21.5658 36.5602 20.9716C36.4688 20.2785 36.3698 19.8671 36.4764 19.0445C36.583 18.2218 37.0629 17.0564 37.0553 16.9726C37.0477 16.8888 36.9487 16.4699 35.966 16.4622C34.9834 16.4546 34.1379 16.6527 34.0397 16.9117C33.8661 17.385 33.7311 17.8715 33.6359 18.3665C33.4608 19.2578 31.6715 22.4417 30.6584 24.1023C30.3232 23.4548 30.0414 22.8835 29.9805 22.4265C29.8891 21.7333 29.79 21.322 29.8967 20.4994C30.0033 19.6767 30.4832 18.5113 30.4756 18.4275C30.468 18.3437 30.3689 17.9247 29.3871 17.9171C28.4052 17.9095 27.559 18.1076 27.4599 18.3665C27.3609 18.6255 27.2543 19.2349 27.0562 19.8214C26.8582 20.408 24.4748 25.7095 23.8509 27.0882C23.531 27.789 23.2568 28.3527 23.0587 28.7335C23.0283 28.7945 23.0054 28.8326 22.9902 28.863C23.013 28.8249 23.0283 28.7869 23.0283 28.8021C22.8607 29.1296 22.7617 29.3124 22.7617 29.3124V29.3201C22.6322 29.5638 22.4874 29.7847 22.4189 29.7847C22.3732 29.7847 22.2742 29.1449 22.4417 28.2689C22.7997 26.4255 23.6452 23.5615 23.6376 23.4624C23.63 23.4091 23.7976 22.914 23.0816 22.6474C22.3884 22.396 22.137 22.815 22.0761 22.815C22.0152 22.815 21.9695 22.9673 21.9695 22.9673C21.9695 22.9673 22.7388 19.7376 20.4925 19.7376C19.0909 19.7376 17.1409 21.2763 16.1827 22.6703C15.5809 22.9978 14.2784 23.7062 12.9073 24.4603C12.3817 24.7497 11.8409 25.0468 11.3305 25.3287C11.2925 25.2906 11.262 25.2525 11.2239 25.2144C8.49771 22.3046 3.46427 20.248 3.67755 16.3404C3.75372 14.916 4.24884 11.1759 13.3567 6.63608C20.8216 2.91889 26.7896 3.93959 27.8172 6.20951C29.2949 9.44682 24.6263 15.472 16.8743 16.3404C13.9196 16.6679 12.3665 15.5253 11.978 15.0988C11.5743 14.6494 11.5134 14.6265 11.361 14.7103C11.1096 14.8474 11.2696 15.2435 11.361 15.4796C11.5895 16.0814 12.5417 17.1478 14.1634 17.681C15.5878 18.1456 19.0521 18.4046 23.2408 16.7822C27.9467 14.9693 31.6098 9.91908 30.5358 5.69154C29.4419 1.39545 22.3183 -0.013729 15.5825 2.37807C11.569 3.80248 7.22868 6.04194 4.1064 8.95932C0.39759 12.4328 -0.195789 15.4568 0.047961 16.7212C0.915559 21.2078 7.09919 24.1328 9.57402 26.296C9.45214 26.3646 9.33788 26.4255 9.23124 26.4865C7.9904 27.1035 3.27613 29.5714 2.09622 32.1765C0.763215 35.132 2.31712 37.2496 3.33706 37.539C6.52029 38.4226 9.77968 36.8306 11.5309 34.2179C13.2821 31.6052 13.0695 28.1927 12.2621 26.6388C12.2545 26.616 12.2393 26.6007 12.2317 26.5779C12.5516 26.3874 12.8791 26.197 13.2067 26.0066C13.8381 25.6333 14.4551 25.2906 14.9959 24.9935C14.6912 25.8162 14.4703 26.8064 14.3561 28.2384C14.219 29.9142 14.9121 32.0851 15.811 32.9382C16.2071 33.3115 16.6862 33.3191 16.9833 33.3191C18.0344 33.3191 18.5067 32.4507 19.0315 31.4148C19.679 30.1503 20.2503 28.6802 20.2503 28.6802C20.2503 28.6802 19.5342 32.6564 21.4919 32.6564C22.2071 32.6564 22.9231 31.7347 23.2438 31.2624V31.2701C23.2438 31.2701 23.2591 31.2396 23.2971 31.1787C23.3733 31.0644 23.4114 30.9958 23.4114 30.9958V30.973C23.7009 30.4779 24.3331 29.3429 25.2845 27.4691C26.5184 25.0468 27.6984 22.0228 27.6984 22.0228C27.8124 22.6875 27.9701 23.3441 28.1706 23.988C28.3839 24.7117 28.8333 25.5039 29.1913 26.2732C28.9019 26.6693 28.7267 26.8978 28.7267 26.8978C28.7272 26.9036 28.7299 26.9091 28.7343 26.913C28.5058 27.2177 28.2468 27.5453 27.9802 27.8652C27.0059 29.023 25.8474 30.3484 25.695 30.7292C25.5122 31.1787 25.5579 31.5138 25.9083 31.7728C26.1673 31.9708 26.6243 32.0013 27.1034 31.9632C27.9794 31.9023 28.5964 31.689 28.8935 31.5519C29.4411 31.3555 29.9588 31.0838 30.4314 30.7445C31.3835 30.0437 31.9625 29.0382 31.9091 27.7128C31.8787 26.9816 31.6425 26.2503 31.3531 25.5648C31.4369 25.4429 31.5283 25.3134 31.6121 25.1839C33.1195 22.9826 34.2849 20.5664 34.2849 20.5664C34.3989 21.2311 34.5567 21.8876 34.7572 22.5316C34.94 23.1486 35.2973 23.8265 35.6248 24.4892C34.2088 25.6394 33.3328 26.9724 33.0281 27.8484C32.4644 29.4709 32.9062 30.2021 33.7365 30.3697C34.1097 30.4459 34.6429 30.2707 35.039 30.1031C35.6273 29.9072 36.1819 29.622 36.6836 29.2576C37.6357 28.5568 38.5567 27.5742 38.4957 26.2412C38.4729 25.6394 38.3053 25.0377 38.0844 24.4588C39.2803 23.956 40.8334 23.6818 42.8139 23.9103C47.0551 24.4055 47.8854 27.0562 47.7255 28.1607C47.5655 29.2652 46.6743 29.8822 46.3772 30.065C46.0801 30.2478 45.9887 30.3164 46.0116 30.4535C46.0497 30.6515 46.1868 30.6439 46.4382 30.5982C46.7886 30.5373 48.6616 29.6994 48.7454 27.6504C48.8673 25.0605 46.3772 22.2117 41.9661 22.2346L41.9684 22.2361ZM9.27695 33.2581C7.87614 34.7892 5.91091 35.3681 5.06616 34.8806C4.15972 34.3535 4.51773 32.1003 6.24607 30.4687C7.29724 29.4785 8.65234 28.5644 9.55116 28.0008C9.75683 27.8789 10.0539 27.6961 10.4195 27.4752C10.4805 27.4371 10.5109 27.4219 10.5109 27.4219C10.5795 27.3762 10.6557 27.3381 10.7318 27.2924C11.3633 29.608 10.7547 31.6494 9.27695 33.2566V33.2581ZM19.5114 26.296C19.0239 27.4919 17.9963 30.5388 17.3717 30.3788C16.8385 30.2417 16.511 27.9185 17.2651 25.6333C17.6459 24.4831 18.4534 23.1121 18.9333 22.5788C19.7018 21.7181 20.5473 21.4439 20.7454 21.7867C21.012 22.2361 19.8161 25.5496 19.5114 26.296ZM27.9665 30.3331C27.7608 30.4398 27.5704 30.5083 27.479 30.455C27.4104 30.4169 27.5628 30.2722 27.5628 30.2722C27.5628 30.2722 28.6216 29.1372 29.0405 28.6193C29.2843 28.3146 29.5661 27.9566 29.87 27.5605C29.87 27.5986 29.8776 27.6367 29.8776 27.6824C29.8677 29.0458 28.5583 29.9675 27.9642 30.3331H27.9665ZM34.4853 28.8478C34.3329 28.7412 34.3558 28.3831 34.8661 27.271C35.0642 26.8369 35.5204 26.1056 36.3134 25.4048C36.4032 25.6701 36.452 25.9475 36.4581 26.2275C36.4505 27.9413 35.2241 28.5812 34.486 28.8478H34.4853Z" fill="white"/>
</g>
<defs>
<clipPath id="clip0_83_182">
<rect width="48.75" height="39" fill="white"/>
</clipPath>
</defs>
</svg>
