<svg width="37" height="43" viewBox="0 0 37 43" fill="none" xmlns="http://www.w3.org/2000/svg">
<g clip-path="url(#clip0_83_178)">
<path d="M32.8125 3.125H3.9375C1.76367 3.125 0 4.88867 0 7.0625V35.9375C0 38.1113 1.76367 39.875 3.9375 39.875H32.8125C34.9863 39.875 36.75 38.1113 36.75 35.9375V7.0625C36.75 4.88867 34.9863 3.125 32.8125 3.125ZM19.9992 31.7867C19.9992 35.3633 17.8992 36.9957 14.8395 36.9957C12.075 36.9957 10.4754 35.5684 9.65508 33.8375L12.4688 32.1395C13.0102 33.0992 13.5023 33.9113 14.6918 33.9113C15.8238 33.9113 16.5457 33.4684 16.5457 31.7375V19.9988H19.9992V31.7867ZM28.1695 36.9957C24.9621 36.9957 22.8867 35.4699 21.8777 33.4684L24.6914 31.8441C25.4297 33.05 26.3977 33.9441 28.0957 33.9441C29.523 33.9441 30.4418 33.2305 30.4418 32.2379C30.4418 31.0566 29.5066 30.6383 27.9234 29.941L27.0621 29.5719C24.5684 28.5137 22.9195 27.1766 22.9195 24.3629C22.9195 21.7707 24.8965 19.802 27.9727 19.802C30.1711 19.802 31.7461 20.5648 32.8781 22.5664L30.1875 24.2891C29.5969 23.2309 28.957 22.8125 27.9645 22.8125C26.9555 22.8125 26.3156 23.4523 26.3156 24.2891C26.3156 25.3227 26.9555 25.741 28.4402 26.3891L29.3016 26.7582C32.2383 28.0133 33.8871 29.3012 33.8871 32.1887C33.8871 35.2895 31.4426 36.9957 28.1695 36.9957Z" fill="white"/>
</g>
<defs>
<clipPath id="clip0_83_178">
<rect width="36.75" height="42" fill="white" transform="translate(0 0.5)"/>
</clipPath>
</defs>
</svg>
