<svg width="37" height="43" viewBox="0 0 37 43" fill="none" xmlns="http://www.w3.org/2000/svg">
<g clip-path="url(#clip0_85_22)">
<path d="M8.25152 27.9181C12.2358 28.1896 13.0873 28.0912 13.0873 28.8976C13.0873 30.5382 7.71012 30.5431 7.71012 29.0223C7.71094 28.6047 7.98 28.2512 8.25152 27.9181ZM10.5443 18.35C7.89551 18.35 7.77574 21.9979 10.4828 21.9979C13.1496 21.9979 13.084 18.35 10.5443 18.35ZM36.75 7.0625V35.9375C36.75 36.9818 36.3352 37.9833 35.5967 38.7217C34.8583 39.4602 33.8568 39.875 32.8125 39.875H3.9375C2.89321 39.875 1.89169 39.4602 1.15327 38.7217C0.414843 37.9833 0 36.9818 0 35.9375L0 7.0625C0 6.01821 0.414843 5.01669 1.15327 4.27827C1.89169 3.53984 2.89321 3.125 3.9375 3.125H32.8125C33.8568 3.125 34.8583 3.53984 35.5967 4.27827C36.3352 5.01669 36.75 6.01821 36.75 7.0625ZM18.1289 12.7481C18.1289 13.9367 18.8163 14.625 20.0041 14.625C21.2133 14.625 21.9015 13.9367 21.9015 12.7481C21.9015 11.5595 21.2149 10.918 20.0058 10.918C18.818 10.918 18.1289 11.5611 18.1289 12.7481ZM16.339 16.4961H12.2743C10.2236 15.9588 5.58387 16.0982 5.58387 20.3311C5.58387 21.8732 6.35496 22.9561 7.37625 23.4573C6.08918 24.6361 5.47969 25.1914 5.47969 25.9789C5.47969 26.5425 5.70855 27.0634 6.3968 27.3537C5.66672 28.0428 5.24836 28.5416 5.24836 29.48C5.25 31.1264 6.68801 32.082 10.4606 32.082C14.088 32.082 16.1921 30.7277 16.1921 28.3307C16.1921 25.3227 13.8764 25.4334 8.41805 25.1004L9.10547 23.9987C10.5 24.3875 15.1914 24.5097 15.1914 20.5181C15.1914 19.5591 14.7952 18.8922 14.4203 18.4123L16.3382 18.2663L16.339 16.4961ZM23.2575 25.5064L22.1911 25.3604C21.8777 25.3186 21.8572 25.2784 21.8572 24.9429V16.2927H17.5424L17.3135 17.98C18.6055 18.4353 18.708 18.3787 18.708 18.8143V24.9453C18.708 25.4063 18.6826 25.321 17.3135 25.5089V27.1544H23.2542L23.2575 25.5064ZM31.5 26.3398L30.9364 24.5048C27.5789 25.7656 27.8316 23.4868 27.8316 23.1324V18.1515H30.9364V16.0671H27.9981C27.7627 16.0671 27.834 16.2738 27.834 12.8982H25.8505C25.6216 15.1705 24.8924 16.0876 23.0614 16.2959V18.1515C24.7406 18.1515 24.6873 18.0818 24.6873 18.3598V23.8207C24.6873 26.1766 25.6249 27.1766 28.1055 27.1766C29.2909 27.1766 30.6034 26.7804 31.5 26.3398Z" fill="white"/>
</g>
<defs>
<clipPath id="clip0_85_22">
<rect width="36.75" height="42" fill="white" transform="translate(0 0.5)"/>
</clipPath>
</defs>
</svg>
