<svg width="37" height="37" viewBox="0 0 37 37" fill="none" xmlns="http://www.w3.org/2000/svg">
<g clip-path="url(#clip0_83_223)">
<path d="M0 18.4999V36.9999H37.0012V-0.0012207H0V18.4999ZM29.818 17.0257C30.7574 17.2604 31.4743 17.6778 32.1322 18.3589C32.4733 18.7231 32.978 19.3868 33.019 19.5452C33.0306 19.5914 31.4217 20.6725 30.4464 21.2778C30.4117 21.301 30.2701 21.1489 30.1111 20.9136C29.6353 20.2199 29.1363 19.921 28.3726 19.8684C27.2511 19.792 26.5226 20.3794 26.5342 21.3599C26.5342 21.6478 26.5747 21.8178 26.6926 22.0537C26.9395 22.5647 27.3979 22.87 28.8363 23.4932C31.4853 24.6321 32.6184 25.3837 33.3226 26.4532C34.1088 27.6453 34.2857 29.5485 33.7515 30.9637C33.1641 32.5027 31.7078 33.548 29.6584 33.8948C29.0242 34.0064 27.5205 33.9891 26.8395 33.8659C25.3537 33.6017 23.9442 32.8675 23.0747 31.9043C22.7336 31.5286 22.0705 30.5475 22.1115 30.4764C22.1289 30.4533 22.2821 30.359 22.4526 30.259L23.8268 29.467L24.8906 28.8501L25.1138 29.1796C25.4248 29.6554 26.1064 30.307 26.5174 30.5244C27.698 31.147 29.319 31.0585 30.1174 30.3423C30.4585 30.0312 30.599 29.708 30.599 29.2323C30.599 28.8033 30.547 28.6154 30.3232 28.2928C30.0353 27.8823 29.448 27.5355 27.7795 26.8128C25.8705 25.9907 25.0484 25.4796 24.2969 24.6691C23.8621 24.1991 23.4511 23.4475 23.2805 22.8191C23.1395 22.2965 23.1042 20.9865 23.2158 20.458C23.6089 18.608 25.001 17.3275 27.01 16.9459C27.6621 16.8228 29.178 16.8696 29.8174 17.028L29.818 17.0257ZM21.1316 18.5693L21.1432 20.084H16.3274V33.7682H12.9211V20.084H8.10531V18.5982L8.14578 17.072C8.16313 17.0488 11.0942 17.0373 14.6474 17.0431L21.1137 17.0604L21.1316 18.5693Z" fill="white"/>
</g>
<defs>
<clipPath id="clip0_83_223">
<rect width="37" height="37" rx="3" fill="white"/>
</clipPath>
</defs>
</svg>
